<svg xmlns="http://www.w3.org/2000/svg" width="1920" height="1080"><path d="M133,1339L-40,1343L300,1340Z" fill="#81828a" stroke="#81828a" stroke-width="1.51"/><path d="M555,-248L760,-233L1153,-239Z" fill="#b5dec8" stroke="#b5dec8" stroke-width="1.51"/><path d="M1176,1265L1018,1279L1537,1324Z" fill="#225a96" stroke="#225a96" stroke-width="1.51"/><path d="M1018,1279L760,1341L1537,1324Z" fill="#2a6093" stroke="#2a6093" stroke-width="1.51"/><path d="M1830,1275L1537,1324L1925,1267Z" fill="#1d3384" stroke="#1d3384" stroke-width="1.51"/><path d="M555,-248L1153,-239L1959,-262Z" fill="#a4c9cb" stroke="#a4c9cb" stroke-width="1.51"/><path d="M1389,-209L1663,-209L1959,-262Z" fill="#9ca1ba" stroke="#9ca1ba" stroke-width="1.51"/><path d="M1153,-239L1389,-209L1959,-262Z" fill="#9eafc0" stroke="#9eafc0" stroke-width="1.51"/><path d="M1889,1024L1963,1194L2050,967Z" fill="#213a8d" stroke="#213a8d" stroke-width="1.51"/><path d="M1974,649L2037,822L2057,638Z" fill="#275e99" stroke="#275e99" stroke-width="1.51"/><path d="M1979,-67L2073,-72L2082,-258Z" fill="#8c8897" stroke="#8c8897" stroke-width="1.51"/><path d="M1959,-262L1979,-67L2082,-258Z" fill="#908ba1" stroke="#908ba1" stroke-width="1.51"/><path d="M2033,349L1975,414L2087,592Z" fill="#447099" stroke="#447099" stroke-width="1.51"/><path d="M1975,414L1967,511L2087,592Z" fill="#3c6e9c" stroke="#3c6e9c" stroke-width="1.51"/><path d="M2057,638L2037,822L2087,592Z" fill="#275e95" stroke="#275e95" stroke-width="1.51"/><path d="M1925,1267L1537,1324L2091,1251Z" fill="#1c2d82" stroke="#1c2d82" stroke-width="1.51"/><path d="M2087,592L2037,822L2110,1131Z" fill="#1e4c8d" stroke="#1e4c8d" stroke-width="1.51"/><path d="M2037,822L2050,967L2110,1131Z" fill="#1b3e87" stroke="#1b3e87" stroke-width="1.51"/><path d="M1963,1194L2091,1251L2110,1131Z" fill="#192a7b" stroke="#192a7b" stroke-width="1.51"/><path d="M2050,967L1963,1194L2110,1131Z" fill="#1d3384" stroke="#1d3384" stroke-width="1.51"/><path d="M1986,215L2033,349L2111,204Z" fill="#627a95" stroke="#627a95" stroke-width="1.51"/><path d="M2033,349L2087,592L2111,204Z" fill="#4b7193" stroke="#4b7193" stroke-width="1.51"/><path d="M2087,592L2110,1131L2111,204Z" fill="#295f92" stroke="#295f92" stroke-width="1.51"/><path d="M2073,-72L1979,-67L2116,49Z" fill="#858591" stroke="#858591" stroke-width="1.51"/><path d="M1979,-67L1916,144L2116,49Z" fill="#828597" stroke="#828597" stroke-width="1.51"/><path d="M1986,215L2111,204L2116,49Z" fill="#717e90" stroke="#717e90" stroke-width="1.51"/><path d="M1916,144L1986,215L2116,49Z" fill="#788297" stroke="#788297" stroke-width="1.51"/><path d="M2082,-258L2073,-72L2116,49Z" fill="#88858f" stroke="#88858f" stroke-width="1.51"/><path d="M2111,204L2110,1131L2116,49Z" fill="#3d6c90" stroke="#3d6c90" stroke-width="1.51"/><path d="M1963,1194L1925,1267L2091,1251Z" fill="#192a7a" stroke="#192a7a" stroke-width="1.51"/><path d="M1967,511L2057,638L2087,592Z" fill="#326899" stroke="#326899" stroke-width="1.51"/><path d="M1967,511L1974,649L2057,638Z" fill="#32689d" stroke="#32689d" stroke-width="1.51"/><path d="M1974,649L1895,788L2037,822Z" fill="#265c9e" stroke="#265c9e" stroke-width="1.51"/><path d="M2037,822L1895,788L2050,967Z" fill="#224f96" stroke="#224f96" stroke-width="1.51"/><path d="M1895,788L1889,1024L2050,967Z" fill="#234897" stroke="#234897" stroke-width="1.51"/><path d="M1986,215L1975,414L2033,349Z" fill="#57779a" stroke="#57779a" stroke-width="1.51"/><path d="M1800,814L1889,1024L1895,788Z" fill="#2953a3" stroke="#2953a3" stroke-width="1.51"/><path d="M1804,-29L1814,125L1916,144Z" fill="#888ca7" stroke="#888ca7" stroke-width="1.51"/><path d="M1889,1024L1836,1044L1963,1194Z" fill="#243a94" stroke="#243a94" stroke-width="1.51"/><path d="M1967,511L1825,638L1974,649Z" fill="#366ba5" stroke="#366ba5" stroke-width="1.51"/><path d="M1825,638L1895,788L1974,649Z" fill="#2f65a7" stroke="#2f65a7" stroke-width="1.51"/><path d="M1804,232L1819,413L1975,414Z" fill="#5a7da9" stroke="#5a7da9" stroke-width="1.51"/><path d="M1804,-29L1916,144L1979,-67Z" fill="#8c8ba2" stroke="#8c8ba2" stroke-width="1.51"/><path d="M1959,-262L1747,-167L1979,-67Z" fill="#988faa" stroke="#988faa" stroke-width="1.51"/><path d="M1747,-167L1804,-29L1979,-67Z" fill="#9791a7" stroke="#9791a7" stroke-width="1.51"/><path d="M1804,232L1975,414L1986,215Z" fill="#637da2" stroke="#637da2" stroke-width="1.51"/><path d="M1916,144L1804,232L1986,215Z" fill="#7484a3" stroke="#7484a3" stroke-width="1.51"/><path d="M1663,-209L1747,-167L1959,-262Z" fill="#9c97b4" stroke="#9c97b4" stroke-width="1.51"/><path d="M1819,413L1967,511L1975,414Z" fill="#4b75a5" stroke="#4b75a5" stroke-width="1.51"/><path d="M1584,1286L1537,1324L1830,1275Z" fill="#1c3b87" stroke="#1c3b87" stroke-width="1.51"/><path d="M1836,1044L1764,1194L1963,1194Z" fill="#253694" stroke="#253694" stroke-width="1.51"/><path d="M1752,517L1825,638L1967,511Z" fill="#3d73ad" stroke="#3d73ad" stroke-width="1.51"/><path d="M1819,413L1752,517L1967,511Z" fill="#4978ac" stroke="#4978ac" stroke-width="1.51"/><path d="M1830,1275L1925,1267L1963,1194Z" fill="#1d2d82" stroke="#1d2d82" stroke-width="1.51"/><path d="M1764,1194L1830,1275L1963,1194Z" fill="#20318b" stroke="#20318b" stroke-width="1.51"/><path d="M1800,814L1836,1044L1889,1024Z" fill="#264a9e" stroke="#264a9e" stroke-width="1.51"/><path d="M1814,125L1804,232L1916,144Z" fill="#7d89a7" stroke="#7d89a7" stroke-width="1.51"/><path d="M1825,638L1800,814L1895,788Z" fill="#2b64ab" stroke="#2b64ab" stroke-width="1.51"/><path d="M1804,-29L1621,118L1814,125Z" fill="#8a94aa" stroke="#8a94aa" stroke-width="1.51"/><path d="M1804,232L1609,278L1819,413Z" fill="#6288ac" stroke="#6288ac" stroke-width="1.51"/><path d="M1613,684L1800,814L1825,638Z" fill="#2d6daf" stroke="#2d6daf" stroke-width="1.51"/><path d="M1691,1158L1764,1194L1836,1044Z" fill="#263e99" stroke="#263e99" stroke-width="1.51"/><path d="M1800,814L1616,934L1836,1044Z" fill="#2654a3" stroke="#2654a3" stroke-width="1.51"/><path d="M1616,934L1691,1158L1836,1044Z" fill="#264a9f" stroke="#264a9f" stroke-width="1.51"/><path d="M1609,278L1593,421L1819,413Z" fill="#5789af" stroke="#5789af" stroke-width="1.51"/><path d="M1764,1194L1584,1286L1830,1275Z" fill="#1f388a" stroke="#1f388a" stroke-width="1.51"/><path d="M1752,517L1654,561L1825,638Z" fill="#3a79b0" stroke="#3a79b0" stroke-width="1.51"/><path d="M1654,561L1613,684L1825,638Z" fill="#3478b1" stroke="#3478b1" stroke-width="1.51"/><path d="M1621,118L1804,232L1814,125Z" fill="#7e90ab" stroke="#7e90ab" stroke-width="1.51"/><path d="M1593,421L1752,517L1819,413Z" fill="#4b82af" stroke="#4b82af" stroke-width="1.51"/><path d="M1587,826L1616,934L1800,814Z" fill="#2662aa" stroke="#2662aa" stroke-width="1.51"/><path d="M1613,684L1587,826L1800,814Z" fill="#276caf" stroke="#276caf" stroke-width="1.51"/><path d="M1747,-167L1590,-73L1804,-29Z" fill="#989bac" stroke="#989bac" stroke-width="1.51"/><path d="M1590,-73L1621,118L1804,-29Z" fill="#909cac" stroke="#909cac" stroke-width="1.51"/><path d="M1621,118L1609,278L1804,232Z" fill="#7593ad" stroke="#7593ad" stroke-width="1.51"/><path d="M1593,421L1654,561L1752,517Z" fill="#4383b2" stroke="#4383b2" stroke-width="1.51"/><path d="M1691,1158L1584,1286L1764,1194Z" fill="#233d92" stroke="#233d92" stroke-width="1.51"/><path d="M1308,1252L1176,1265L1537,1324Z" fill="#215394" stroke="#215394" stroke-width="1.51"/><path d="M1389,-209L1529,-163L1663,-209Z" fill="#9dacbb" stroke="#9dacbb" stroke-width="1.51"/><path d="M1663,-209L1590,-73L1747,-167Z" fill="#9a9fb3" stroke="#9a9fb3" stroke-width="1.51"/><path d="M1496,969L1491,1116L1616,934Z" fill="#245aa7" stroke="#245aa7" stroke-width="1.51"/><path d="M1616,934L1491,1116L1691,1158Z" fill="#2650a1" stroke="#2650a1" stroke-width="1.51"/><path d="M1491,1116L1584,1286L1691,1158Z" fill="#244699" stroke="#244699" stroke-width="1.51"/><path d="M1590,-73L1499,-52L1621,118Z" fill="#91a4af" stroke="#91a4af" stroke-width="1.51"/><path d="M1533,220L1609,278L1621,118Z" fill="#7699b0" stroke="#7699b0" stroke-width="1.51"/><path d="M1593,421L1479,504L1654,561Z" fill="#418ab5" stroke="#418ab5" stroke-width="1.51"/><path d="M1529,-163L1590,-73L1663,-209Z" fill="#9aa5b5" stroke="#9aa5b5" stroke-width="1.51"/><path d="M1522,716L1587,826L1613,684Z" fill="#2477b4" stroke="#2477b4" stroke-width="1.51"/><path d="M1499,-52L1518,141L1621,118Z" fill="#8aa3b0" stroke="#8aa3b0" stroke-width="1.51"/><path d="M1479,504L1613,684L1654,561Z" fill="#3584b5" stroke="#3584b5" stroke-width="1.51"/><path d="M1454,334L1593,421L1609,278Z" fill="#5994b3" stroke="#5994b3" stroke-width="1.51"/><path d="M1479,504L1522,716L1613,684Z" fill="#2f83b6" stroke="#2f83b6" stroke-width="1.51"/><path d="M1587,826L1491,887L1616,934Z" fill="#2366ac" stroke="#2366ac" stroke-width="1.51"/><path d="M1518,141L1533,220L1621,118Z" fill="#7e9eb0" stroke="#7e9eb0" stroke-width="1.51"/><path d="M1491,887L1496,969L1616,934Z" fill="#2362aa" stroke="#2362aa" stroke-width="1.51"/><path d="M1533,220L1454,334L1609,278Z" fill="#689ab3" stroke="#689ab3" stroke-width="1.51"/><path d="M1491,1116L1537,1324L1584,1286Z" fill="#204692" stroke="#204692" stroke-width="1.51"/><path d="M1529,-163L1499,-52L1590,-73Z" fill="#9aa9b2" stroke="#9aa9b2" stroke-width="1.51"/><path d="M1454,334L1479,504L1593,421Z" fill="#4e94b6" stroke="#4e94b6" stroke-width="1.51"/><path d="M1479,504L1386,668L1522,716Z" fill="#2f8ab9" stroke="#2f8ab9" stroke-width="1.51"/><path d="M1522,716L1491,887L1587,826Z" fill="#2471b2" stroke="#2471b2" stroke-width="1.51"/><path d="M1499,-52L1280,91L1518,141Z" fill="#8caeb4" stroke="#8caeb4" stroke-width="1.51"/><path d="M1343,847L1491,887L1522,716Z" fill="#2377b5" stroke="#2377b5" stroke-width="1.51"/><path d="M1386,668L1343,847L1522,716Z" fill="#2283ba" stroke="#2283ba" stroke-width="1.51"/><path d="M1371,-113L1499,-52L1529,-163Z" fill="#9bb0b6" stroke="#9bb0b6" stroke-width="1.51"/><path d="M1491,1116L1361,1138L1537,1324Z" fill="#254f9d" stroke="#254f9d" stroke-width="1.51"/><path d="M1361,1138L1308,1252L1537,1324Z" fill="#235198" stroke="#235198" stroke-width="1.51"/><path d="M1518,141L1346,246L1533,220Z" fill="#77a4b5" stroke="#77a4b5" stroke-width="1.51"/><path d="M1346,246L1454,334L1533,220Z" fill="#6aa2b6" stroke="#6aa2b6" stroke-width="1.51"/><path d="M1389,-209L1371,-113L1529,-163Z" fill="#9db4bb" stroke="#9db4bb" stroke-width="1.51"/><path d="M1338,593L1386,668L1479,504Z" fill="#3293bc" stroke="#3293bc" stroke-width="1.51"/><path d="M1454,334L1330,431L1479,504Z" fill="#4d9bb9" stroke="#4d9bb9" stroke-width="1.51"/><path d="M1326,972L1361,1138L1491,1116Z" fill="#285fa9" stroke="#285fa9" stroke-width="1.51"/><path d="M1326,972L1491,1116L1496,969Z" fill="#2662aa" stroke="#2662aa" stroke-width="1.51"/><path d="M1371,-113L1280,91L1499,-52Z" fill="#96b6b6" stroke="#96b6b6" stroke-width="1.51"/><path d="M1280,91L1346,246L1518,141Z" fill="#80afb7" stroke="#80afb7" stroke-width="1.51"/><path d="M1491,887L1326,972L1496,969Z" fill="#2369ae" stroke="#2369ae" stroke-width="1.51"/><path d="M1343,847L1326,972L1491,887Z" fill="#2372b2" stroke="#2372b2" stroke-width="1.51"/><path d="M1330,431L1338,593L1479,504Z" fill="#3c9abd" stroke="#3c9abd" stroke-width="1.51"/><path d="M1346,246L1330,431L1454,334Z" fill="#5aa4ba" stroke="#5aa4ba" stroke-width="1.51"/><path d="M1133,731L1179,840L1343,847Z" fill="#238cbd" stroke="#238cbd" stroke-width="1.51"/><path d="M1238,363L1330,431L1346,246Z" fill="#59aabd" stroke="#59aabd" stroke-width="1.51"/><path d="M1326,972L1232,1021L1361,1138Z" fill="#286aae" stroke="#286aae" stroke-width="1.51"/><path d="M1155,-58L1280,91L1371,-113Z" fill="#97c0ba" stroke="#97c0ba" stroke-width="1.51"/><path d="M1133,731L1343,847L1386,668Z" fill="#1e8ebf" stroke="#1e8ebf" stroke-width="1.51"/><path d="M1338,593L1133,731L1386,668Z" fill="#2896c0" stroke="#2896c0" stroke-width="1.51"/><path d="M1153,-239L1371,-113L1389,-209Z" fill="#a0c0c2" stroke="#a0c0c2" stroke-width="1.51"/><path d="M1280,91L1199,218L1346,246Z" fill="#7bb6bc" stroke="#7bb6bc" stroke-width="1.51"/><path d="M1221,1173L1308,1252L1361,1138Z" fill="#295ea4" stroke="#295ea4" stroke-width="1.51"/><path d="M1153,-239L1155,-58L1371,-113Z" fill="#a0c6c0" stroke="#a0c6c0" stroke-width="1.51"/><path d="M1330,431L1147,501L1338,593Z" fill="#3ba4c1" stroke="#3ba4c1" stroke-width="1.51"/><path d="M1232,1021L1221,1173L1361,1138Z" fill="#2b66ac" stroke="#2b66ac" stroke-width="1.51"/><path d="M760,-233L898,-188L1153,-239Z" fill="#acdac8" stroke="#acdac8" stroke-width="1.51"/><path d="M1179,840L1326,972L1343,847Z" fill="#227db7" stroke="#227db7" stroke-width="1.51"/><path d="M1199,218L1238,363L1346,246Z" fill="#68b2bd" stroke="#68b2bd" stroke-width="1.51"/><path d="M1179,840L1232,1021L1326,972Z" fill="#2479b5" stroke="#2479b5" stroke-width="1.51"/><path d="M1147,501L1133,731L1338,593Z" fill="#30a1c2" stroke="#30a1c2" stroke-width="1.51"/><path d="M1238,363L1147,501L1330,431Z" fill="#4babc0" stroke="#4babc0" stroke-width="1.51"/><path d="M1221,1173L1176,1265L1308,1252Z" fill="#285f9f" stroke="#285f9f" stroke-width="1.51"/><path d="M1129,97L1199,218L1280,91Z" fill="#87bfbc" stroke="#87bfbc" stroke-width="1.51"/><path d="M1155,-58L1129,97L1280,91Z" fill="#92c3bb" stroke="#92c3bb" stroke-width="1.51"/><path d="M929,1274L760,1341L1018,1279Z" fill="#3a6b96" stroke="#3a6b96" stroke-width="1.51"/><path d="M1071,278L1084,335L1199,218Z" fill="#6dbbbe" stroke="#6dbbbe" stroke-width="1.51"/><path d="M1179,840L1041,996L1232,1021Z" fill="#2c7eb5" stroke="#2c7eb5" stroke-width="1.51"/><path d="M1071,1155L1221,1173L1232,1021Z" fill="#316bad" stroke="#316bad" stroke-width="1.51"/><path d="M1041,996L1071,1155L1232,1021Z" fill="#3375b0" stroke="#3375b0" stroke-width="1.51"/><path d="M1199,218L1084,335L1238,363Z" fill="#64b5be" stroke="#64b5be" stroke-width="1.51"/><path d="M1084,335L1147,501L1238,363Z" fill="#54b2c0" stroke="#54b2c0" stroke-width="1.51"/><path d="M1153,-239L1054,-159L1155,-58Z" fill="#a4cdc2" stroke="#a4cdc2" stroke-width="1.51"/><path d="M1014,687L1133,731L1147,501Z" fill="#34a4c2" stroke="#34a4c2" stroke-width="1.51"/><path d="M1071,1155L1176,1265L1221,1173Z" fill="#3066a5" stroke="#3066a5" stroke-width="1.51"/><path d="M989,574L1014,687L1147,501Z" fill="#3aacc3" stroke="#3aacc3" stroke-width="1.51"/><path d="M1061,60L1129,97L1155,-58Z" fill="#96c9bc" stroke="#96c9bc" stroke-width="1.51"/><path d="M1129,97L1071,278L1199,218Z" fill="#7dbfbd" stroke="#7dbfbd" stroke-width="1.51"/><path d="M1071,1155L1018,1279L1176,1265Z" fill="#3167a0" stroke="#3167a0" stroke-width="1.51"/><path d="M1133,731L1019,824L1179,840Z" fill="#2b93be" stroke="#2b93be" stroke-width="1.51"/><path d="M1019,824L1041,996L1179,840Z" fill="#2f8aba" stroke="#2f8aba" stroke-width="1.51"/><path d="M1025,-19L1061,60L1155,-58Z" fill="#9bccbc" stroke="#9bccbc" stroke-width="1.51"/><path d="M1061,60L1071,278L1129,97Z" fill="#88c6bc" stroke="#88c6bc" stroke-width="1.51"/><path d="M1084,335L989,574L1147,501Z" fill="#4ab3c2" stroke="#4ab3c2" stroke-width="1.51"/><path d="M898,-188L1054,-159L1153,-239Z" fill="#a7d4c6" stroke="#a7d4c6" stroke-width="1.51"/><path d="M1054,-159L1025,-19L1155,-58Z" fill="#a2cfbb" stroke="#a2cfbb" stroke-width="1.51"/><path d="M1061,60L915,237L1071,278Z" fill="#81c7bd" stroke="#81c7bd" stroke-width="1.51"/><path d="M1014,687L1019,824L1133,731Z" fill="#2d9dc2" stroke="#2d9dc2" stroke-width="1.51"/><path d="M855,430L989,574L1084,335Z" fill="#53bac2" stroke="#53bac2" stroke-width="1.51"/><path d="M1019,824L928,946L1041,996Z" fill="#358ab8" stroke="#358ab8" stroke-width="1.51"/><path d="M880,145L915,237L1061,60Z" fill="#8dcebd" stroke="#8dcebd" stroke-width="1.51"/><path d="M1041,996L915,1178L1071,1155Z" fill="#3b76ae" stroke="#3b76ae" stroke-width="1.51"/><path d="M1071,278L915,237L1084,335Z" fill="#6ec1be" stroke="#6ec1be" stroke-width="1.51"/><path d="M915,237L855,430L1084,335Z" fill="#65c2c0" stroke="#65c2c0" stroke-width="1.51"/><path d="M897,-101L1025,-19L1054,-159Z" fill="#a5d4bd" stroke="#a5d4bd" stroke-width="1.51"/><path d="M915,1178L1018,1279L1071,1155Z" fill="#386ea5" stroke="#386ea5" stroke-width="1.51"/><path d="M928,946L915,1178L1041,996Z" fill="#3c80b2" stroke="#3c80b2" stroke-width="1.51"/><path d="M1025,-19L880,145L1061,60Z" fill="#96d0bc" stroke="#96d0bc" stroke-width="1.51"/><path d="M898,-188L897,-101L1054,-159Z" fill="#a9d8c2" stroke="#a9d8c2" stroke-width="1.51"/><path d="M915,1178L929,1274L1018,1279Z" fill="#386e9f" stroke="#386e9f" stroke-width="1.51"/><path d="M1014,687L842,726L1019,824Z" fill="#33a3c2" stroke="#33a3c2" stroke-width="1.51"/><path d="M897,-101L880,145L1025,-19Z" fill="#9ed5bb" stroke="#9ed5bb" stroke-width="1.51"/><path d="M989,574L837,581L1014,687Z" fill="#3eb0c4" stroke="#3eb0c4" stroke-width="1.51"/><path d="M837,581L842,726L1014,687Z" fill="#43adc2" stroke="#43adc2" stroke-width="1.51"/><path d="M835,850L928,946L1019,824Z" fill="#3b94ba" stroke="#3b94ba" stroke-width="1.51"/><path d="M842,726L835,850L1019,824Z" fill="#3e9fbe" stroke="#3e9fbe" stroke-width="1.51"/><path d="M855,430L837,581L989,574Z" fill="#4cb9c3" stroke="#4cb9c3" stroke-width="1.51"/><path d="M388,1298L300,1340L760,1341Z" fill="#66798e" stroke="#66798e" stroke-width="1.51"/><path d="M751,80L880,145L897,-101Z" fill="#a1d7bb" stroke="#a1d7bb" stroke-width="1.51"/><path d="M716,-43L751,80L897,-101Z" fill="#acdbb9" stroke="#acdbb9" stroke-width="1.51"/><path d="M732,413L855,430L915,237Z" fill="#6dc5be" stroke="#6dc5be" stroke-width="1.51"/><path d="M707,225L732,413L915,237Z" fill="#7dcbbd" stroke="#7dcbbd" stroke-width="1.51"/><path d="M835,850L780,853L928,946Z" fill="#4696b9" stroke="#4696b9" stroke-width="1.51"/><path d="M780,853L697,1022L928,946Z" fill="#4c90b5" stroke="#4c90b5" stroke-width="1.51"/><path d="M700,1101L915,1178L928,946Z" fill="#4a80af" stroke="#4a80af" stroke-width="1.51"/><path d="M697,1022L700,1101L928,946Z" fill="#5088b1" stroke="#5088b1" stroke-width="1.51"/><path d="M915,1178L760,1341L929,1274Z" fill="#416f9b" stroke="#416f9b" stroke-width="1.51"/><path d="M700,1101L760,1341L915,1178Z" fill="#4d76a3" stroke="#4d76a3" stroke-width="1.51"/><path d="M880,145L707,225L915,237Z" fill="#8bcfbc" stroke="#8bcfbc" stroke-width="1.51"/><path d="M761,501L837,581L855,430Z" fill="#5abdc1" stroke="#5abdc1" stroke-width="1.51"/><path d="M760,-233L716,-43L897,-101Z" fill="#b3debd" stroke="#b3debd" stroke-width="1.51"/><path d="M760,-233L897,-101L898,-188Z" fill="#b0dcc3" stroke="#b0dcc3" stroke-width="1.51"/><path d="M751,80L707,225L880,145Z" fill="#99d5ba" stroke="#99d5ba" stroke-width="1.51"/><path d="M7,-234L252,-175L555,-248Z" fill="#e6f5bf" stroke="#e6f5bf" stroke-width="1.51"/><path d="M636,1270L388,1298L760,1341Z" fill="#5a7692" stroke="#5a7692" stroke-width="1.51"/><path d="M700,1101L636,1270L760,1341Z" fill="#54779d" stroke="#54779d" stroke-width="1.51"/><path d="M780,853L835,850L842,726Z" fill="#49a0bd" stroke="#49a0bd" stroke-width="1.51"/><path d="M739,731L780,853L842,726Z" fill="#4da6be" stroke="#4da6be" stroke-width="1.51"/><path d="M837,581L739,731L842,726Z" fill="#4dafc1" stroke="#4dafc1" stroke-width="1.51"/><path d="M732,413L761,501L855,430Z" fill="#66c2c0" stroke="#66c2c0" stroke-width="1.51"/><path d="M761,501L739,731L837,581Z" fill="#55b7c1" stroke="#55b7c1" stroke-width="1.51"/><path d="M707,225L637,236L732,413Z" fill="#85cfbb" stroke="#85cfbb" stroke-width="1.51"/><path d="M588,535L546,664L739,731Z" fill="#66b9be" stroke="#66b9be" stroke-width="1.51"/><path d="M620,143L707,225L751,80Z" fill="#9fd8b9" stroke="#9fd8b9" stroke-width="1.51"/><path d="M632,-104L716,-43L760,-233Z" fill="#b9e2bb" stroke="#b9e2bb" stroke-width="1.51"/><path d="M588,535L739,731L761,501Z" fill="#5fbbc0" stroke="#5fbbc0" stroke-width="1.51"/><path d="M632,1001L697,1022L780,853Z" fill="#5792b2" stroke="#5792b2" stroke-width="1.51"/><path d="M622,806L632,1001L780,853Z" fill="#599cb7" stroke="#599cb7" stroke-width="1.51"/><path d="M739,731L622,806L780,853Z" fill="#55a6bc" stroke="#55a6bc" stroke-width="1.51"/><path d="M637,236L613,435L732,413Z" fill="#7ccbbc" stroke="#7ccbbc" stroke-width="1.51"/><path d="M555,-248L632,-104L760,-233Z" fill="#bfe5c2" stroke="#bfe5c2" stroke-width="1.51"/><path d="M732,413L613,435L761,501Z" fill="#6dc5be" stroke="#6dc5be" stroke-width="1.51"/><path d="M613,435L588,535L761,501Z" fill="#6cc4bf" stroke="#6cc4bf" stroke-width="1.51"/><path d="M252,-175L425,-188L555,-248Z" fill="#daf0bf" stroke="#daf0bf" stroke-width="1.51"/><path d="M716,-43L620,143L751,80Z" fill="#aadcb8" stroke="#aadcb8" stroke-width="1.51"/><path d="M546,664L622,806L739,731Z" fill="#5fb0be" stroke="#5fb0be" stroke-width="1.51"/><path d="M549,1184L636,1270L700,1101Z" fill="#607da4" stroke="#607da4" stroke-width="1.51"/><path d="M632,-104L620,143L716,-43Z" fill="#b3dfb7" stroke="#b3dfb7" stroke-width="1.51"/><path d="M472,71L620,143L632,-104Z" fill="#b8e2b6" stroke="#b8e2b6" stroke-width="1.51"/><path d="M620,143L637,236L707,225Z" fill="#99d6b9" stroke="#99d6b9" stroke-width="1.51"/><path d="M697,1022L632,1001L700,1101Z" fill="#5b8aaf" stroke="#5b8aaf" stroke-width="1.51"/><path d="M632,1001L549,1184L700,1101Z" fill="#6286ab" stroke="#6286ab" stroke-width="1.51"/><path d="M388,213L379,420L613,435Z" fill="#97d5ba" stroke="#97d5ba" stroke-width="1.51"/><path d="M546,664L483,793L622,806Z" fill="#6cb2bd" stroke="#6cb2bd" stroke-width="1.51"/><path d="M395,-44L472,71L632,-104Z" fill="#c6e8b5" stroke="#c6e8b5" stroke-width="1.51"/><path d="M555,-248L425,-188L632,-104Z" fill="#cceabf" stroke="#cceabf" stroke-width="1.51"/><path d="M622,806L483,793L632,1001Z" fill="#67a2b6" stroke="#67a2b6" stroke-width="1.51"/><path d="M483,793L483,1037L632,1001Z" fill="#6e9ab2" stroke="#6e9ab2" stroke-width="1.51"/><path d="M483,1037L549,1184L632,1001Z" fill="#6b8bac" stroke="#6b8bac" stroke-width="1.51"/><path d="M549,1184L388,1298L636,1270Z" fill="#687d9a" stroke="#687d9a" stroke-width="1.51"/><path d="M620,143L388,213L637,236Z" fill="#a6dbb8" stroke="#a6dbb8" stroke-width="1.51"/><path d="M388,213L613,435L637,236Z" fill="#95d5ba" stroke="#95d5ba" stroke-width="1.51"/><path d="M425,-188L395,-44L632,-104Z" fill="#ceebb7" stroke="#ceebb7" stroke-width="1.51"/><path d="M472,71L388,213L620,143Z" fill="#b6e2b6" stroke="#b6e2b6" stroke-width="1.51"/><path d="M379,420L588,535L613,435Z" fill="#82cbbd" stroke="#82cbbd" stroke-width="1.51"/><path d="M485,673L483,793L546,664Z" fill="#74b8bd" stroke="#74b8bd" stroke-width="1.51"/><path d="M485,673L546,664L588,535Z" fill="#74bfbd" stroke="#74bfbd" stroke-width="1.51"/><path d="M402,561L485,673L588,535Z" fill="#7cc5bd" stroke="#7cc5bd" stroke-width="1.51"/><path d="M379,420L402,561L588,535Z" fill="#87cdbd" stroke="#87cdbd" stroke-width="1.51"/><path d="M483,1037L415,1085L549,1184Z" fill="#758baa" stroke="#758baa" stroke-width="1.51"/><path d="M415,1085L388,1298L549,1184Z" fill="#7684a3" stroke="#7684a3" stroke-width="1.51"/><path d="M483,793L289,1014L483,1037Z" fill="#7d9eb1" stroke="#7d9eb1" stroke-width="1.51"/><path d="M308,257L379,420L388,213Z" fill="#abddb7" stroke="#abddb7" stroke-width="1.51"/><path d="M277,640L269,830L483,793Z" fill="#88bbbb" stroke="#88bbbb" stroke-width="1.51"/><path d="M269,830L289,1014L483,793Z" fill="#86aab4" stroke="#86aab4" stroke-width="1.51"/><path d="M289,1014L415,1085L483,1037Z" fill="#7f95ac" stroke="#7f95ac" stroke-width="1.51"/><path d="M277,640L483,793L485,673Z" fill="#82bebc" stroke="#82bebc" stroke-width="1.51"/><path d="M402,561L277,640L485,673Z" fill="#88c6bc" stroke="#88c6bc" stroke-width="1.51"/><path d="M287,1106L388,1298L415,1085Z" fill="#828aa6" stroke="#828aa6" stroke-width="1.51"/><path d="M395,-44L234,121L472,71Z" fill="#ceebb4" stroke="#ceebb4" stroke-width="1.51"/><path d="M234,121L388,213L472,71Z" fill="#c6e8b4" stroke="#c6e8b4" stroke-width="1.51"/><path d="M7,-234L156,-165L252,-175Z" fill="#edf8bc" stroke="#edf8bc" stroke-width="1.51"/><path d="M379,420L321,504L402,561Z" fill="#93d1bc" stroke="#93d1bc" stroke-width="1.51"/><path d="M272,-93L395,-44L425,-188Z" fill="#dbf1b6" stroke="#dbf1b6" stroke-width="1.51"/><path d="M252,-175L272,-93L425,-188Z" fill="#e1f3b9" stroke="#e1f3b9" stroke-width="1.51"/><path d="M287,1106L300,1340L388,1298Z" fill="#7d8499" stroke="#7d8499" stroke-width="1.51"/><path d="M272,-93L234,121L395,-44Z" fill="#d8efb3" stroke="#d8efb3" stroke-width="1.51"/><path d="M289,1014L287,1106L415,1085Z" fill="#8694ab" stroke="#8694ab" stroke-width="1.51"/><path d="M308,257L231,356L379,420Z" fill="#a8dcb7" stroke="#a8dcb7" stroke-width="1.51"/><path d="M321,504L277,640L402,561Z" fill="#90cdbd" stroke="#90cdbd" stroke-width="1.51"/><path d="M234,121L308,257L388,213Z" fill="#bfe5b6" stroke="#bfe5b6" stroke-width="1.51"/><path d="M186,-52L234,121L272,-93Z" fill="#dcf1b3" stroke="#dcf1b3" stroke-width="1.51"/><path d="M231,356L321,504L379,420Z" fill="#9fd7ba" stroke="#9fd7ba" stroke-width="1.51"/><path d="M112,801L269,830L277,640Z" fill="#91bdbb" stroke="#91bdbb" stroke-width="1.51"/><path d="M145,1107L133,1339L287,1106Z" fill="#8c8ca2" stroke="#8c8ca2" stroke-width="1.51"/><path d="M269,830L150,980L289,1014Z" fill="#8ca4b0" stroke="#8ca4b0" stroke-width="1.51"/><path d="M287,1106L133,1339L300,1340Z" fill="#818596" stroke="#818596" stroke-width="1.51"/><path d="M160,503L277,640L321,504Z" fill="#97d1bc" stroke="#97d1bc" stroke-width="1.51"/><path d="M231,356L160,503L321,504Z" fill="#a2d7ba" stroke="#a2d7ba" stroke-width="1.51"/><path d="M138,634L112,801L277,640Z" fill="#97c5bb" stroke="#97c5bb" stroke-width="1.51"/><path d="M234,121L140,220L308,257Z" fill="#c4e7b5" stroke="#c4e7b5" stroke-width="1.51"/><path d="M140,220L231,356L308,257Z" fill="#b7e2b6" stroke="#b7e2b6" stroke-width="1.51"/><path d="M160,503L138,634L277,640Z" fill="#9acebc" stroke="#9acebc" stroke-width="1.51"/><path d="M145,1107L287,1106L289,1014Z" fill="#8c95aa" stroke="#8c95aa" stroke-width="1.51"/><path d="M150,980L145,1107L289,1014Z" fill="#8f9bac" stroke="#8f9bac" stroke-width="1.51"/><path d="M186,-52L107,87L234,121Z" fill="#daf0b3" stroke="#daf0b3" stroke-width="1.51"/><path d="M112,801L150,980L269,830Z" fill="#92afb4" stroke="#92afb4" stroke-width="1.51"/><path d="M252,-175L156,-165L272,-93Z" fill="#e6f5b8" stroke="#e6f5b8" stroke-width="1.51"/><path d="M113,431L160,503L231,356Z" fill="#a9dab9" stroke="#a9dab9" stroke-width="1.51"/><path d="M156,-165L186,-52L272,-93Z" fill="#e5f5b5" stroke="#e5f5b5" stroke-width="1.51"/><path d="M140,220L113,431L231,356Z" fill="#b3e0b7" stroke="#b3e0b7" stroke-width="1.51"/><path d="M107,87L140,220L234,121Z" fill="#d2edb4" stroke="#d2edb4" stroke-width="1.51"/><path d="M-18,359L113,431L140,220Z" fill="#b8e2b6" stroke="#b8e2b6" stroke-width="1.51"/><path d="M-40,1343L133,1339L145,1107Z" fill="#8c8896" stroke="#8c8896" stroke-width="1.51"/><path d="M112,801L11,864L150,980Z" fill="#98afb3" stroke="#98afb3" stroke-width="1.51"/><path d="M156,-165L22,-69L186,-52Z" fill="#eaf7b3" stroke="#eaf7b3" stroke-width="1.51"/><path d="M22,-69L107,87L186,-52Z" fill="#e4f4b2" stroke="#e4f4b2" stroke-width="1.51"/><path d="M-42,690L112,801L138,634Z" fill="#9ec7bb" stroke="#9ec7bb" stroke-width="1.51"/><path d="M107,87L7,203L140,220Z" fill="#d2edb4" stroke="#d2edb4" stroke-width="1.51"/><path d="M7,203L-18,359L140,220Z" fill="#c6e7b6" stroke="#c6e7b6" stroke-width="1.51"/><path d="M-57,1086L-40,1343L145,1107Z" fill="#968fa6" stroke="#968fa6" stroke-width="1.51"/><path d="M11,864L9,993L150,980Z" fill="#99a8b0" stroke="#99a8b0" stroke-width="1.51"/><path d="M9,993L145,1107L150,980Z" fill="#959eac" stroke="#959eac" stroke-width="1.51"/><path d="M-60,594L138,634L160,503Z" fill="#a3d2bb" stroke="#a3d2bb" stroke-width="1.51"/><path d="M113,431L-60,594L160,503Z" fill="#a8d8bb" stroke="#a8d8bb" stroke-width="1.51"/><path d="M7,-234L22,-69L156,-165Z" fill="#f1fab9" stroke="#f1fab9" stroke-width="1.51"/><path d="M9,993L-57,1086L145,1107Z" fill="#989bac" stroke="#989bac" stroke-width="1.51"/><path d="M-60,594L-42,690L138,634Z" fill="#a3cebe" stroke="#a3cebe" stroke-width="1.51"/><path d="M-57,1086L-110,1296L-40,1343Z" fill="#928ca1" stroke="#928ca1" stroke-width="1.51"/><path d="M22,-69L-55,128L107,87Z" fill="#e3f4b5" stroke="#e3f4b5" stroke-width="1.51"/><path d="M-55,128L7,203L107,87Z" fill="#daf0b5" stroke="#daf0b5" stroke-width="1.51"/><path d="M-42,690L11,864L112,801Z" fill="#9dbebb" stroke="#9dbebb" stroke-width="1.51"/><path d="M-18,359L-60,594L113,431Z" fill="#afdcbd" stroke="#afdcbd" stroke-width="1.51"/><path d="M-172,1132L-110,1296L-57,1086Z" fill="#9991ae" stroke="#9991ae" stroke-width="1.51"/><path d="M-142,393L-60,594L-18,359Z" fill="#b2ddc2" stroke="#b2ddc2" stroke-width="1.51"/><path d="M-155,198L-18,359L7,203Z" fill="#caeabc" stroke="#caeabc" stroke-width="1.51"/><path d="M-134,819L-187,1025L9,993Z" fill="#9caaba" stroke="#9caaba" stroke-width="1.51"/><path d="M-134,819L9,993L11,864Z" fill="#9cb0b9" stroke="#9cb0b9" stroke-width="1.51"/><path d="M-42,690L-134,819L11,864Z" fill="#9fbebf" stroke="#9fbebf" stroke-width="1.51"/><path d="M-138,-22L-55,128L22,-69Z" fill="#e8f6b9" stroke="#e8f6b9" stroke-width="1.51"/><path d="M7,-234L-136,-173L22,-69Z" fill="#f4fabf" stroke="#f4fabf" stroke-width="1.51"/><path d="M-136,-173L-138,-22L22,-69Z" fill="#f2fabc" stroke="#f2fabc" stroke-width="1.51"/><path d="M-187,1025L-57,1086L9,993Z" fill="#9b9fb4" stroke="#9b9fb4" stroke-width="1.51"/><path d="M-55,128L-155,198L7,203Z" fill="#d6efbc" stroke="#d6efbc" stroke-width="1.51"/><path d="M-142,393L-204,540L-60,594Z" fill="#aedbc8" stroke="#aedbc8" stroke-width="1.51"/><path d="M-156,701L-134,819L-42,690Z" fill="#a1c6c5" stroke="#a1c6c5" stroke-width="1.51"/><path d="M-155,198L-142,393L-18,359Z" fill="#c1e6c1" stroke="#c1e6c1" stroke-width="1.51"/><path d="M-138,-22L-199,135L-55,128Z" fill="#e5f4be" stroke="#e5f4be" stroke-width="1.51"/><path d="M-60,594L-156,701L-42,690Z" fill="#a4ccc4" stroke="#a4ccc4" stroke-width="1.51"/><path d="M-199,135L-155,198L-55,128Z" fill="#dcf1c0" stroke="#dcf1c0" stroke-width="1.51"/><path d="M-187,1025L-172,1132L-57,1086Z" fill="#9c9bb6" stroke="#9c9bb6" stroke-width="1.51"/><path d="M-204,540L-156,701L-60,594Z" fill="#a7d2c8" stroke="#a7d2c8" stroke-width="1.51"/><path d="M-155,198L-199,135L-142,393Z" fill="#cfebc3" stroke="#cfebc3" stroke-width="1.51"/><path d="M-199,135L-138,-22L-136,-173Z" fill="#eef9c0" stroke="#eef9c0" stroke-width="1.51"/><path d="M-156,701L-187,1025L-134,819Z" fill="#9fb7c3" stroke="#9fb7c3" stroke-width="1.51"/><path d="M-199,135L-204,540L-142,393Z" fill="#bee4c7" stroke="#bee4c7" stroke-width="1.51"/><path d="M-204,540L-187,1025L-156,701Z" fill="#a2c5c9" stroke="#a2c5c9" stroke-width="1.51"/></svg>